<?xml version="1.0" encoding="UTF-8" standalone="no"?>
<!-- Created with Inkscape (http://www.inkscape.org/) -->

<svg
   width="433.63815mm"
   height="328.78265mm"
   viewBox="0 0 433.63816 328.78265"
   version="1.1"
   id="svg1"
   xml:space="preserve"
   inkscape:version="1.4 (e7c3feb100, 2024-10-09)"
   sodipodi:docname="anvil2.svg"
   xmlns:inkscape="http://www.inkscape.org/namespaces/inkscape"
   xmlns:sodipodi="http://sodipodi.sourceforge.net/DTD/sodipodi-0.dtd"
   xmlns="http://www.w3.org/2000/svg"
   xmlns:svg="http://www.w3.org/2000/svg"><sodipodi:namedview
     id="namedview1"
     pagecolor="#ffffff"
     bordercolor="#000000"
     borderopacity="0.25"
     inkscape:showpageshadow="2"
     inkscape:pageopacity="0.0"
     inkscape:pagecheckerboard="true"
     inkscape:deskcolor="#d1d1d1"
     inkscape:document-units="mm"
     inkscape:zoom="0.36524972"
     inkscape:cx="677.61859"
     inkscape:cy="1033.5395"
     inkscape:window-width="1920"
     inkscape:window-height="1056"
     inkscape:window-x="1920"
     inkscape:window-y="0"
     inkscape:window-maximized="1"
     inkscape:current-layer="layer1" /><defs
     id="defs1">
	
	
	
	
	
	
	
</defs><g
     inkscape:label="Layer 1"
     inkscape:groupmode="layer"
     id="layer1"
     transform="translate(-39.298172,-0.18109752)"><rect
       style="fill:#13161e;fill-opacity:1;stroke:#000000;stroke-width:0"
       id="rect5"
       width="433.63815"
       height="328.78265"
       x="39.298172"
       y="0.18109752"
       ry="0" /><path
       style="stroke-width:13.2292"
       d="M -210.87292,236.58918"
       id="path4" /><path
       d="m 255.85094,323.49257 c -29.33886,0 -53.12007,-23.78119 -53.12007,-53.12016 0,-29.33882 23.78121,-53.12002 53.12007,-53.12002 29.33879,0 53.12,23.7812 53.12,53.12002 0,29.33897 -23.78121,53.12016 -53.12,53.12016 z M 276.269,265.62485 a 0.29880037,0.29880037 0 0 0 -0.26608,0.1655 v -1.46092 l -0.36511,0.19944 c -0.23216,0.23215 -0.23216,0.26601 -0.23216,0.63118 v 2.72241 a 2.3240029,2.3240029 0 0 0 0,0.79678 2.3904027,2.3904027 0 0 1 -0.29862,1.32798 l -0.59727,0.39779 h -0.29867 a 0.5976007,0.5976007 0 0 1 0,-0.29866 v -1.09546 h -0.23212 a 1.6268019,1.6268019 0 0 0 -0.29865,0.46553 3.6520043,3.6520043 0 0 0 -0.46428,1.79275 c -0.0753,0.49816 -0.0753,0.99631 0,1.49398 a 2.0252024,2.0252024 0 0 1 -0.3978,1.89249 0.66400082,0.66400082 0 0 1 -0.39901,0.23213 0.69720085,0.69720085 0 0 0 -0.63117,0.39779 l -0.19944,0.43165 a 5.079606,5.079606 0 0 1 -0.29866,-1.02895 v -1.26158 a 3.3200035,3.3200035 0 0 0 -0.56464,0.46429 9.9600115,9.9600115 0 0 0 -1.49398,4.88042 c -0.0627,0.3978 -0.0627,0.86332 -0.69766,0.79682 -0.63119,-0.063 -0.92982,0.49815 -1.09547,0.79678 -0.1653,0.29866 -0.33252,0.29866 -0.56467,0 a 1.7928021,1.7928021 0 0 1 0,-1.89237 l 0.23215,-0.46552 a 1.2948015,1.2948015 0 0 0 -1.09546,0.23213 7.6360093,7.6360093 0 0 0 -2.35711,2.12477 l -1.42758,2.29077 a 9.9600115,9.9600115 0 0 1 -1.72638,2.35729 4.5484055,4.5484055 0 0 1 -4.08363,1.09544 7.4700087,7.4700087 0 0 1 -3.15407,-1.79288 15.570818,15.570818 0 0 1 -2.52317,-3.31997 11.088813,11.088813 0 0 1 -1.09545,-3.31995 c -0.063,-0.23216 -0.16551,0 -0.46426,0 -0.82947,0.49817 -1.79951,0.69768 -2.75571,0.56466 a 3.3200035,3.3200035 0 0 1 -2.65592,-2.29087 0.79680094,0.79680094 0 0 0 -0.29863,-0.39781 c -0.23215,-0.23214 -0.56467,-0.39775 -0.79681,-0.63115 a 2.755603,2.755603 0 0 1 -0.5647,-1.79274 1.1288013,1.1288013 0 0 1 -1.42769,-0.79681 2.788803,2.788803 0 0 1 0,-2.82206 0.46480058,0.46480058 0 0 0 0,-0.29863 c -0.56465,-0.63115 -1.65996,-1.72634 -1.65996,-1.72634 v -0.29865 c 0.49813,-0.86336 1.1356,-1.64005 1.89239,-2.29078 a 0.49800061,0.49800061 0 0 0 0,-0.56469 1.4276017,1.4276017 0 0 1 0,-1.29481 4.7808056,4.7808056 0 0 1 0.79677,-1.09545 l -1.16198,-0.29862 -3.31993,-0.6977 a 1.0624013,1.0624013 0 0 0 -0.69767,0 12.350415,12.350415 0 0 0 -2.58966,2.35715 11.487213,11.487213 0 0 0 -0.69766,1.02894 v 0.23211 l 0.39772,-0.23211 0.56471,-0.59726 a 11.985215,11.985215 0 0 0 -0.86331,1.26158 c -0.63117,1.22844 -1.32797,2.49 -1.89236,3.7516 a 4.0836048,4.0836048 0 0 0 -0.56465,2.12479 v 0.39775 l 0.2986,-0.29863 a 2.3572032,2.3572032 0 0 0 0.29865,-0.5308 14.641217,14.641217 0 0 0 -0.56465,1.72645 15.371617,15.371617 0 0 0 -0.69766,4.94683 c 0.0502,0.714 0.26852,1.40767 0.63113,2.02513 0.063,0.29866 0.46431,0.46431 0.46431,0.29866 v -1.82615 c 0.24841,0.64122 0.45799,1.29487 0.63116,1.9589 0.1428,0.56468 0.24217,1.14564 0.29868,1.72634 0.23211,1.16196 0.39901,2.35733 0.69764,3.51926 0.21204,0.48811 0.50443,0.93606 0.86334,1.32793 h 0.63111 v -0.56466 l -0.2321,-0.46424 a 1.7264019,1.7264019 0 0 1 0,-1.26163 l 2.12474,2.35729 a 0.29880037,0.29880037 0 0 1 0,0.23215 c 0.0753,1.09545 0.37516,2.16793 0.86328,3.15396 a 2.6560031,2.6560031 0 0 0 2.52333,1.65998 h 0.39774 c -0.29866,-0.1655 -0.13292,-0.13278 -0.29866,-0.39904 -0.16529,-0.26601 -0.39774,-0.29861 -0.56464,-0.56465 -0.1653,-0.26604 0.16551,-0.56465 0.39903,-0.56465 a 2.8220034,2.8220034 0 0 1 0.86331,0.29861 25.896033,25.896033 0 0 0 4.9467,2.82195 l 2.29089,0.92978 0.7968,0.29868 c -0.5308,1.49396 -1.09544,2.92156 -1.56047,4.24951 -0.33253,-0.69767 -0.63118,-1.49396 -1.02895,-2.19114 l -0.46426,-0.92983 a 1.4276017,1.4276017 0 0 0 -1.02893,-0.79673 3.3200035,3.3200035 0 0 1 -1.89239,-0.46555 c -0.63115,-0.0628 -1.56048,0.16551 -1.79285,0.79681 a 1.9920024,1.9920024 0 0 1 1.95887,0.39779 c -0.39903,0.86328 -0.1655,1.42771 0.63113,1.6601 a 1.2616016,1.2616016 0 0 1 0.92986,1.16192 c 0.19944,0.57473 0.27604,1.18581 0.23211,1.79289 a 1.7928021,1.7928021 0 0 1 -1.16197,-0.92983 5.0132059,5.0132059 0 0 0 -2.19123,-2.02513 c -0.63119,-0.33253 -1.32797,-0.46426 -1.79276,0.23215 h -0.29863 a 4.4488054,4.4488054 0 0 0 -1.02894,0 c -0.76291,0.13292 -1.09542,0.86332 -1.32795,1.56037 a 2.8220034,2.8220034 0 0 1 1.56035,-0.46429 c 0.1655,0 0.2986,0.13292 0.2986,0.29862 a 0.76360095,0.76360095 0 0 0 0.86335,0.63119 l 1.79273,0.69766 a 2.6560031,2.6560031 0 0 1 1.56048,1.494 h -0.46431 a 15.106018,15.106018 0 0 0 -1.89247,0 4.9468059,4.9468059 0 0 0 -2.35715,0.79677 2.755603,2.755603 0 0 0 -1.42762,1.4276 1.0956013,1.0956013 0 0 0 0,0.69767 v 0.46429 a 2.6228029,2.6228029 0 0 0 0,0.79679 2.490003,2.490003 0 0 0 0.69772,1.26172 3.3200035,3.3200035 0 0 1 0.39776,-2.12491 c 0.9298,0.46431 1.26155,0.39778 1.95884,-0.39777 l 0.46429,-0.59729 a 2.2244027,2.2244027 0 0 1 1.72636,-0.23214 l 2.35715,0.29867 a 0.39840047,0.39840047 0 0 1 0,0.2321 6.8724081,6.8724081 0 0 1 -1.65996,1.72638 2.0584024,2.0584024 0 0 0 -0.69769,2.65606 1.3280015,1.3280015 0 0 1 0,0.56465 1.3944017,1.3944017 0 0 0 0.99632,1.72636 v -1.26157 a 1.4940018,1.4940018 0 0 0 1.89252,-0.86331 6.6400081,6.6400081 0 0 0 0.56464,-1.65995 c 0.28233,-1.0164 0.99634,-1.85602 1.95873,-2.29092 a 2.8884035,2.8884035 0 0 0 1.72639,-1.16197 l 0.23214,0.29867 a 2.4568028,2.4568028 0 0 0 2.29077,1.32806 c 0.16548,0 0.29863,0.13278 0.29863,0.29864 l 0.23214,1.59358 c 0.16552,-0.23214 0.56466,-0.46426 0.56466,-0.69762 a 3.0876036,3.0876036 0 0 0 0.29864,-2.35729 0.36520046,0.36520046 0 0 1 0,-0.39903 1.0624013,1.0624013 0 0 0 0,-1.26158 3.3200035,3.3200035 0 0 0 -1.56035,-1.56034 l -1.26154,-0.56471 0.46423,-0.23211 1.42759,-0.69765 c 0.1655,0 0.29868,-0.23217 0.46429,0 0.1655,0.23213 0.39902,0.46552 0.39902,0.69765 a 4.8140056,4.8140056 0 0 1 -0.23212,0.8633 h 0.39777 a 2.5564033,2.5564033 0 0 0 1.49398,-1.95886 c 0.063,-0.46429 0.33253,-0.86331 0.63117,-0.86331 0.29863,0 0.63117,-0.23213 0.8633,0 a 0.89640105,0.89640105 0 0 1 0.23211,0.86331 l -0.23211,0.69767 c 0.46427,-0.29866 0.92979,-0.56465 1.32794,-0.8633 0.90598,-0.59105 1.52723,-1.52707 1.72637,-2.58956 a 1.4276017,1.4276017 0 0 1 0.9298,-0.9298 19.720822,19.720822 0 0 0 2.12489,-0.29862 32.569239,32.569239 0 0 0 3.75163,-0.86332 20.617223,20.617223 0 0 0 5.17921,-2.35717 c 1.19457,-0.73028 2.29076,-1.42757 3.31994,-2.29089 a 19.588023,19.588023 0 0 0 2.58968,-2.52315 22.576029,22.576029 0 0 0 2.12474,-2.65606 c 0.75038,-1.12806 1.42762,-2.30407 2.02515,-3.51908 a 19.920024,19.920024 0 0 0 1.6601,-4.24968 25.564033,25.564033 0 0 0 0.92983,-5.87635 34.129641,34.129641 0 0 0 0,-4.01726 5.3120063,5.3120063 0 0 0 0,-1.09544 l 2.35713,0.63117 a 2.8220034,2.8220034 0 0 1 -0.56465,0.7968 1.2948015,1.2948015 0 0 0 -0.46429,1.49395 c 0.24972,0.57095 0.58475,1.09546 0.99632,1.56052 a 1.6268019,1.6268019 0 0 0 1.32796,0.56465 c -0.1653,-0.26605 0.0628,0 -0.39902,-0.56465 -0.46429,-0.5647 -0.46429,-0.63118 0,-1.02896 a 2.0916026,2.0916026 0 0 0 0.39902,-0.4643 2.8220034,2.8220034 0 0 0 0.29866,-0.86328 l 0.69762,0.29864 a 3.6520043,3.6520043 0 0 1 1.82603,1.72649 0.86320107,0.86320107 0 0 0 1.09544,0.56466 c 0.39777,-0.0631 0.63118,0 0.63118,0.39774 v 0.1657 h 0.1655 a 0.83000097,0.83000097 0 0 0 0.39779,-1.09547 c -0.23215,-0.49812 -0.56467,-0.96243 -0.79681,-1.42756 a 2.8220034,2.8220034 0 0 0 -2.09162,-1.42759 10.690413,10.690413 0 0 0 1.09543,-0.63121 1.4608018,1.4608018 0 0 1 1.49397,0 0.5976007,0.5976007 0 0 0 0.82944,0 0.43160045,0.43160045 0 0 1 0.59729,0 l 0.63115,0.46431 a 0.5976007,0.5976007 0 0 0 0,-0.29866 1.660002,1.660002 0 0 0 -0.56466,-1.09542 1.1620014,1.1620014 0 0 1 -0.39902,-0.46429 1.2284014,1.2284014 0 0 0 -1.42761,-0.69765 11.354413,11.354413 0 0 1 -1.26159,0.29861 5.079606,5.079606 0 0 1 0.63122,-0.69762 c 0.46422,-0.29869 0.69763,-0.46432 0.46422,-0.92984 l 1.09546,-0.53078 a 1.1620014,1.1620014 0 0 0 -1.16193,-0.69767 2.9880037,2.9880037 0 0 1 -1.16196,0 0.5976007,0.5976007 0 0 0 -0.39903,0 c -0.39775,0.1655 -0.46427,0.69767 -0.63116,1.02892 a 2.8552035,2.8552035 0 0 0 -0.39902,1.0289 c -0.29863,-0.63112 -0.56466,-0.69761 0,-1.32802 0.56462,-0.6312 0.46429,-0.92981 0,-1.494 a 1.3280015,1.3280015 0 0 0 0,-1.32794 1.2948015,1.2948015 0 0 0 -0.99633,1.19581 h -0.29864 c -0.63116,-0.10074 -0.9298,0.53078 -0.9298,1.16194 0.0377,0.73032 0.0377,1.46087 0,2.19127 h -0.23213 a 1.6268019,1.6268019 0 0 0 -0.29867,-0.46551 31.141636,31.141636 0 0 0 -2.29074,-2.29078 5.8100071,5.8100071 0 0 0 -2.5233,-1.49395 c -0.23213,0 -0.23213,-0.29864 -0.23213,-0.29864 a 7.5032088,7.5032088 0 0 0 -1.49398,-2.65609 3.5856041,3.5856041 0 0 1 -1.02895,-2.29076 c 0,-0.23215 -0.29863,-0.39776 -0.29863,-0.63118 a 5.5444064,5.5444064 0 0 0 -0.23218,3.78476 c 0.19946,0.57472 0.27608,1.18581 0.23218,1.79286 a 3.3200035,3.3200035 0 0 0 -0.6638,0.39779 c -0.1655,0.16531 -0.56467,0.63116 -0.56467,0.39903 v -0.23215 a 0.99600115,0.99600115 0 0 0 0,-0.46554 1.0956013,1.0956013 0 0 0 -0.23215,-0.29864 l -0.23214,0.23213 a 0.99600115,0.99600115 0 0 1 0,0.4643 5.6772066,5.6772066 0 0 0 0.23214,3.61887 1.3280015,1.3280015 0 0 1 0,0.92979 1.8592022,1.8592022 0 0 1 0,0.63115 c -0.46431,-0.16548 -0.46431,0.0631 -0.46431,0.29868 z m -40.80289,-15.13921 a 1.1952014,1.1952014 0 0 1 0.39777,0.56466 c 1.08291,0.69015 2.27083,1.19585 3.51924,1.49399 1.39434,0.43166 3.0543,0.66379 4.7143,0.99631 0.82067,0.0502 1.63026,0.18196 2.42364,0.39778 1.68321,0.44543 3.2901,1.1293 4.78083,2.02508 a 0.49800061,0.49800061 0 0 0 0.46427,0 c 0.69769,-0.2321 1.32811,-0.56463 2.02524,-0.79677 a 12.350415,12.350415 0 0 1 3.85124,-0.63114 h 2.02516 c 0.93608,0.14944 1.85922,0.38142 2.75566,0.69762 1.56033,0.57472 2.97804,1.48082 4.14989,2.65608 v -1.16195 c 0,-1.02894 0.6136,-1.95889 1.56045,-2.35728 a 1.9256022,1.9256022 0 0 1 2.1248,0.43164 3.0876036,3.0876036 0 0 1 0.79676,2.12478 22.078024,22.078024 0 0 1 0,3.31995 3.3200035,3.3200035 0 0 1 -0.9298,1.9589 v 0.56467 c 0.60104,1.44087 0.89598,2.98791 0.86333,4.54837 a 13.778016,13.778016 0 0 1 -0.23215,3.154 v 0.63114 c 0.16552,-0.1655 0.19946,0 0.4643,-0.46426 0.26599,-0.46429 0.33252,-1.02895 0.56464,-1.49398 a 2.722403,2.722403 0 0 1 2.05838,-1.85925 v -1.72637 a 3.3200035,3.3200035 0 0 1 1.49396,-2.7557 v -0.2321 a 9.495211,9.495211 0 0 1 0,-2.98794 2.8552035,2.8552035 0 0 1 1.02895,-1.95891 0.46480058,0.46480058 0 0 0 0,-0.29863 19.920024,19.920024 0 0 1 0,-2.19113 9.3292108,9.3292108 0 0 0 0.46425,-3.32009 4.2828049,4.2828049 0 0 0 -0.46425,-1.42762 10.225612,10.225612 0 0 1 -0.79682,-1.16191 12.217614,12.217614 0 0 0 -1.26156,-1.56049 1.7928021,1.7928021 0 0 0 -1.32794,-0.63115 c 0.23212,0.63115 0.92979,1.09544 0.63115,1.95886 a 5.079606,5.079606 0 0 0 -0.69768,-0.63115 0.79680094,0.79680094 0 0 1 -0.46428,-0.56468 4.3824051,4.3824051 0 0 0 -1.32809,-1.95888 2.1248025,2.1248025 0 0 0 -2.02507,-0.63117 l 0.29861,0.23213 a 1.5604019,1.5604019 0 0 1 0.86331,1.09547 v 0.69769 h -0.46429 c -0.39902,-0.23217 -0.7642,-0.5647 -1.32798,-0.86333 a 4.0504048,4.0504048 0 0 0 -2.3904,-2.72242 4.183205,4.183205 0 0 0 -1.42758,-0.39775 c -0.29864,-0.23215 -0.56467,0 -0.86331,0 h 0.23216 a 1.2616016,1.2616016 0 0 1 0.86328,1.16193 1.7264019,1.7264019 0 0 1 -0.39905,0.13292 h -0.23211 a 1.6268019,1.6268019 0 0 0 -1.49411,-0.63113 6.0756075,6.0756075 0 0 0 -0.56465,-1.26157 3.6520043,3.6520043 0 0 0 -2.58953,-1.56039 2.8552035,2.8552035 0 0 0 -1.09544,0 v 0.49816 h 0.66377 a 0.89640105,0.89640105 0 0 1 0.43167,1.19581 c -0.063,-0.29859 0.10031,-0.063 -0.29866,-0.29859 a 3.3200035,3.3200035 0 0 0 -1.32806,-0.23214 1.8924023,1.8924023 0 0 1 -0.56468,-0.23219 4.1168051,4.1168051 0 0 0 -1.72633,-1.32793 2.8552035,2.8552035 0 0 0 -2.82206,0.39778 h 0.23212 a 0.92960104,0.92960104 0 0 1 0.92981,0.69767 v 0.29866 h -0.23213 a 1.2284014,1.2284014 0 0 0 -1.2616,0 0.92960104,0.92960104 0 0 1 -0.92979,-0.29866 h -0.23215 a 3.3200035,3.3200035 0 0 0 -1.79274,-0.69767 2.755603,2.755603 0 0 0 -2.02527,0.53074 0.36520046,0.36520046 0 0 0 0,0.49819 c 0.29863,0 0,0.23214 0.29863,0 0.29866,-0.23211 0.39903,0.0627 0.69769,0.23214 0.29866,0.16532 0.29866,0.39778 0,0.39778 l -1.16191,0.39775 c -0.56467,0.29866 -1.2616,0 -1.49398,0 H 245.757 a 4.6812054,4.6812054 0 0 0 -2.75569,0 c -0.53078,0.23215 -1.09542,0.6977 -1.09542,1.2616 a 0.5976007,0.5976007 0 0 0 0.29861,0 c 0.29868,-0.39903 0.6312,-0.16551 0.86331,0 0.23215,0.16551 0.29863,0.4643 0,0.4643 l -1.8925,1.02891 a 0.53120055,0.53120055 0 0 1 -0.46425,0 3.9176047,3.9176047 0 0 0 -2.65605,0 1.9588023,1.9588023 0 0 0 -1.09547,1.22846 v 0.39779 h 0.29867 c 0.26604,0 0.56466,-0.23213 0.56466,0 0,0.23212 0.23214,0.46424 0,0.69763 a 1.3612016,1.3612016 0 0 0 -0.39779,0.29867 z m 31.37402,15.60401 -0.7303,0.0376 a 1.826002,1.826002 0 0 1 -1.66,-1.49408 0.76360095,0.76360095 0 0 0 -0.69767,-0.69769 c -0.69764,0.063 -0.86329,-0.3325 -1.09541,-0.79678 a 0.99600115,0.99600115 0 0 1 0,-0.46429 1.5936018,1.5936018 0 0 1 1.65994,-1.26157 h 2.82197 a 1.826002,1.826002 0 0 0 2.02521,-1.5605 7.768809,7.768809 0 0 0 0,-3.31993 c 0,-0.266 0.10074,-0.56469 -0.2986,-0.56469 -0.39902,0 -0.39902,0.23213 -0.39902,0.46427 v 2.12491 a 1.693202,1.693202 0 0 1 -1.46086,1.36121 3.3200035,3.3200035 0 0 1 -1.7264,0 9.7276117,9.7276117 0 0 0 -2.12487,-0.23214 2.4236026,2.4236026 0 0 0 -2.52315,1.32806 c -0.16549,0.29868 0.1653,0.46429 -0.46426,0.86333 a 17.695622,17.695622 0 0 1 -1.89238,1.02892 0.69720085,0.69720085 0 0 1 -0.8633,0 2.8220034,2.8220034 0 0 0 -2.82194,-0.39775 h -0.39902 a 0.99600115,0.99600115 0 0 1 -0.4643,-1.02894 4.7808056,4.7808056 0 0 0 0,-3.31993 1.3280015,1.3280015 0 0 0 -1.42756,-0.69773 c -0.53078,0.23215 -0.99632,0.46556 -1.56049,0 a 9.9600115,9.9600115 0 0 0 -4.7808,-2.29075 c -1.49398,-0.33251 -3.05446,-0.56466 -4.54842,-0.79679 -0.92983,-0.16552 -1.89238,-0.33252 -2.82196,-0.56467 a 12.051614,12.051614 0 0 1 -4.44888,-2.19114 31.739236,31.739236 0 0 1 -1.49395,-1.42762 l -0.86335,-0.92981 a 0.73040082,0.73040082 0 0 0 -0.56465,0 v 0.69771 c 0.33253,0.99882 0.95994,1.87907 1.79289,2.52315 a 11.354413,11.354413 0 0 0 3.31996,1.89238 c 1.1619,0.35512 2.35051,0.63115 3.55233,0.82941 l 2.19129,0.23217 a 16.60002,16.60002 0 0 1 4.71443,1.09542 c 0.80304,0.34883 1.59362,0.73407 2.35713,1.16195 v 0.36513 a 7.7024091,7.7024091 0 0 1 -1.2616,0.39906 0.36520046,0.36520046 0 0 1 -0.39899,0 c -1.02895,-0.39906 -2.05839,-0.86333 -3.15396,-1.26159 a 9.1964107,9.1964107 0 0 0 -2.12491,-0.3978 l -1.89236,-0.23214 c -0.86331,-0.23211 -1.56037,-0.0631 -2.58968,-0.23211 -1.0289,-0.1653 -2.02507,-0.39902 -3.05434,-0.63118 a 10.458012,10.458012 0 0 1 -3.5192,-1.65995 c -0.86328,-0.6312 -1.65996,-1.49401 -2.52317,-2.19117 l -0.53076,-0.29862 h -0.39904 v 0.39774 a 4.6480054,4.6480054 0 0 0 0.46556,1.09546 c 0.86326,1.32797 1.99184,2.45674 3.31998,3.31999 1.28475,0.81055 2.68249,1.42755 4.14996,1.82593 a 18.592022,18.592022 0 0 0 3.75162,0.92984 c 0.91602,0.11295 1.81267,0.35884 2.65594,0.73029 0.92979,0.29866 1.89247,0.7642 2.82205,1.16196 a 6.6400081,6.6400081 0 0 1 1.02895,0.69768 3.9840047,3.9840047 0 0 1 -1.72639,0.86332 l -1.79282,0.33249 a 1.0956013,1.0956013 0 0 0 -0.86335,0.79681 c 1.07915,0.0377 2.14148,0.25598 3.15399,0.63116 1.14939,0.39778 2.04519,1.30475 2.42362,2.45677 l -0.23211,-0.23211 a 5.7104066,5.7104066 0 0 0 -2.19128,-1.32797 4.1168051,4.1168051 0 0 0 -2.75556,0 c -0.46428,0.33253 -1.02893,0.8633 -1.32793,1.09544 -0.29868,0.23214 -0.23215,0.39778 0,0.63117 0.71022,0.73029 1.57026,1.29484 2.52314,1.65999 h -0.39902 a 1.8592022,1.8592022 0 0 0 -1.32794,1.49408 3.3200035,3.3200035 0 0 1 0,0.39904 h 0.399 c 0.2321,0 0.49817,-0.23215 0.79678,0 a 2.722403,2.722403 0 0 1 1.02895,0.8633 0.49800061,0.49800061 0 0 1 0,0.46429 7.7024091,7.7024091 0 0 0 -0.39776,1.26157 c -0.23216,0.0628 -0.16552,0.4643 0,0.4643 a 1.660002,1.660002 0 0 0 0.39776,-0.29869 l 0.23215,0.4643 a 3.0876036,3.0876036 0 0 0 0.63117,1.09544 2.6228029,2.6228029 0 0 0 3.05446,0.46428 13.280015,13.280015 0 0 0 1.72634,-1.16197 0.96280118,0.96280118 0 0 1 0.63115,-0.29863 3.7848046,3.7848046 0 0 1 0.92983,0 0.36520046,0.36520046 0 0 1 0.29867,0.23216 1.1620014,1.1620014 0 0 1 -0.29867,1.09542 8.3000098,8.3000098 0 0 0 -0.92983,0.79682 2.1580025,2.1580025 0 0 0 1.56037,0 3.7848046,3.7848046 0 0 0 1.56046,-1.16194 1.2616016,1.2616016 0 0 0 0.29869,-0.9298 16.865619,16.865619 0 0 1 -0.6312,-2.35733 c -0.0631,-0.63112 -0.29865,-1.02892 -0.92979,-1.02892 a 1.1288013,1.1288013 0 0 1 0,0.4643 c -0.23214,0.29861 -0.16571,0.29861 -0.63117,0 l -1.3281,-0.92982 a 1.8924023,1.8924023 0 0 1 -0.86332,-1.72638 0.63080071,0.63080071 0 0 1 0.63118,-0.63117 1.660002,1.660002 0 0 1 0.8633,1.4941 1.1620014,1.1620014 0 0 1 0,0.4643 l 0.69769,-0.4643 1.49393,0.39903 c 0.49817,0.0376 0.99633,0.0376 1.49396,0 a 5.1128059,5.1128059 0 0 0 0,1.09547 c 0.25856,1.49071 0.76422,2.92495 1.49401,4.24964 0.63117,1.22846 1.32806,2.48993 1.89248,3.75161 a 3.1208037,3.1208037 0 0 1 0.23217,2.52318 v 0.23212 a 1.9256022,1.9256022 0 0 1 -2.5233,1.02894 5.0132059,5.0132059 0 0 1 -1.65999,-1.89235 c -0.46428,-0.63118 -1.16196,-1.69326 -1.32796,-1.95889 a 0.86320107,0.86320107 0 0 0 -0.86329,-0.56465 v 0.46552 c 0.15305,0.4881 0.34127,0.96619 0.56463,1.42759 0.39904,0.63116 0.86333,1.26157 1.328,1.89239 0.53451,0.71396 1.19833,1.3213 1.95875,1.79283 a 2.9880037,2.9880037 0 0 0 4.78078,-2.65604 7.8684093,7.8684093 0 0 0 -0.56466,-3.32009 c -0.46428,-1.02893 -1.02892,-2.15789 -1.49396,-3.31993 a 9.5948116,9.5948116 0 0 1 -1.09543,-4.11678 2.8220034,2.8220034 0 0 1 0.86326,-1.89238 c 0,0.23215 0.23217,-0.1655 0,0.23215 a 2.3240029,2.3240029 0 0 0 -0.23209,1.26158 c 1.16192,-0.23215 1.62684,-1.09546 2.02525,-2.1249 a 2.3904027,2.3904027 0 0 0 0,0.69769 1.660002,1.660002 0 0 0 0.29862,0.39775 0.66400082,0.66400082 0 0 0 0.4643,-0.23212 8.3332097,8.3332097 0 0 0 0.69765,-0.86332 c 0.20194,0.13292 0.39151,0.29238 0.56468,0.46429 0.46424,0.69765 0.79678,0.63115 1.02893,0 a 1.3944017,1.3944017 0 0 1 0.79678,-0.92982 c 0.28861,0.30869 0.59729,0.59729 0.92981,0.8633 h 0.4643 a 1.5936018,1.5936018 0 0 0 0,-0.39777 v -1.16192 c 1.09544,0.29859 2.12477,0.16549 2.12477,-0.39779 z m -18.49245,-2.29077 0.36515,-0.39779 a 3.3200035,3.3200035 0 0 0 1.72638,0 l 0.56463,-0.23213 a 1.693202,1.693202 0 0 1 0.86331,0 1.0624013,1.0624013 0 0 1 0.56468,0.69768 v 0.23215 a 11.985215,11.985215 0 0 1 -1.26158,0.86328 1.2948015,1.2948015 0 0 1 -1.56049,0 16.168419,16.168419 0 0 1 -1.26156,-1.16193 z m 10.82323,1.09544 a 4.6148053,4.6148053 0 0 1 3.12082,0.16552 c 0.23213,0.18941 0.44165,0.39776 0.63114,0.63114 -0.23212,0.0628 -0.39777,0.29866 -0.63114,0.29866 a 6.0424072,6.0424072 0 0 1 -1.16201,0 2.6228029,2.6228029 0 0 0 -1.49394,-0.86334 1.1620014,1.1620014 0 0 1 -0.46426,-0.2321 z m -41.3673,10.22565 a 1.2284014,1.2284014 0 0 1 0.0628,0.6977 2.523203,2.523203 0 0 0 2.22441,1.79272 c 0.6312,0.0753 1.26158,0.0753 1.89238,0 a 5.1128059,5.1128059 0 0 0 1.82601,-0.49814 4.9136057,4.9136057 0 0 0 2.19126,-2.35731 c 0.29865,-0.69768 0.63114,-1.32793 0.86329,-2.02514 l 0.92981,-2.65602 c 0.39778,-1.16193 0.86333,-2.49004 1.32798,-3.51926 0.46425,-1.02892 0.9963,-1.95871 1.56046,-2.98791 a 17.662419,17.662419 0 0 1 2.65593,-3.68521 l 0.46425,-0.3978 -1.09543,-0.46428 -1.72635,-0.9298 c -0.1655,0 -0.46429,-0.23214 -0.46429,0 a 29.182837,29.182837 0 0 0 -1.49398,2.65603 c -0.69766,1.49396 -1.1619,3.05445 -1.79288,4.54841 a 4.9800061,4.9800061 0 0 1 -1.09541,1.72638 3.9176047,3.9176047 0 0 1 -3.31994,1.02895 5.3120063,5.3120063 0 0 1 -1.56051,-0.56469 1.8592022,1.8592022 0 0 1 -0.9298,-1.3281 2.9548036,2.9548036 0 0 0 0.16551,4.81406 c 1.4508,0.99633 3.36313,0.99633 4.81393,0 a 11.752813,11.752813 0 0 1 0.99632,-0.86324 4.5484055,4.5484055 0 0 1 -5.01319,2.45674 h -0.4643 a 4.3492052,4.3492052 0 0 1 -2.85531,-5.44487 4.3160049,4.3160049 0 0 0 -1.79274,4.78083 c 0.26605,1.21841 1.03897,2.27098 2.12478,2.8884 a 5.3784062,5.3784062 0 0 0 3.68521,0.46431 1.3280015,1.3280015 0 0 1 -0.8633,0.79681 3.3200035,3.3200035 0 0 1 -3.32008,-0.92983 z m 46.71248,-2.65603 c 0.23215,0 0.23215,0 1.06281,0.26598 h 0.23213 v -0.29862 a 1.5604019,1.5604019 0 0 0 -0.56466,-1.26157 9.9600115,9.9600115 0 0 1 -1.65993,-1.49398 0.79680094,0.79680094 0 0 0 -0.3978,-0.29865 l -0.56466,-0.23215 v 0.69769 c 0,0.16571 0.29865,0.63117 0,0.63117 l -0.86327,0.46429 c -1.19464,-1.4276 -1.19464,-1.02897 -1.66002,-1.02897 0.063,0.23218 0.29864,0.3978 0.29864,0.63119 a 1.2948015,1.2948015 0 0 1 0,1.09542 1.5604019,1.5604019 0 0 1 -1.89235,0 l -0.33253,-0.39776 c 0.15305,1.22845 0.52074,2.42354 1.09544,3.51911 h 0.46429 a 2.8884035,2.8884035 0 0 1 0.86327,-0.39778 0.76360095,0.76360095 0 0 1 0.99633,0.39778 l 0.23214,0.69766 h 0.36516 a 0.79680094,0.79680094 0 0 0 0.29862,-0.39903 1.9256022,1.9256022 0 0 0 0,-1.72648 h 0.39905 l 0.92979,0.46551 c 0.39903,0.23215 0.69768,0.23215 0.69768,-0.23212 a 5.1128059,5.1128059 0 0 0 0,-1.09542 z m -39.20924,-5.27884 a 2.5896033,2.5896033 0 0 0 -0.66381,-2.55642 1.4940018,1.4940018 0 0 0 -1.4941,-0.29863 0.96280118,0.96280118 0 0 0 -0.56467,0.92979 c 0,0.23215 -0.10074,0.39903 -0.39901,0.23215 -0.29865,-0.16551 -0.56464,-0.56467 -0.86333,-0.56467 a 1.2616016,1.2616016 0 0 0 0.92984,1.79275 c 0.30868,0.0377 0.62113,0.0377 0.9298,0 a 3.4860041,3.4860041 0 0 1 2.12476,0.46427 z"
       id="path1-6"
       style="fill:#4feee0;fill-opacity:1;stroke-width:3.31999" /><path
       style="fill:#4feee0;fill-opacity:1;stroke-width:26.5711"
       d="m 255.05253,111.09992 c -41.72466,0.31138 -83.13798,16.71061 -111.78475,48.15981 l -13.2855,14.6348 c -4.77446,5.18965 -7.36929,12.03994 -6.9541,19.09785 0.31137,7.05791 3.42515,13.70065 8.71858,18.47512 5.18966,4.77444 12.03996,7.26549 19.09785,6.85031 7.05792,-0.31135 13.70065,-3.42516 18.47514,-8.71859 l 13.18166,-14.53099 c 33.94023,-37.26158 110.53928,-39.75263 146.76293,0.10379 l 13.28549,14.4272 c 4.67065,5.29344 11.31341,8.40724 18.37129,8.7186 7.05791,0.41518 13.90822,-2.07586 19.20166,-6.85032 5.18966,-4.77447 8.30341,-11.4172 8.61481,-18.47512 0.31139,-6.95412 -2.17966,-13.9082 -6.95413,-19.09786 l -13.28547,-14.53093 c -29.7885,-32.7986 -71.82456,-48.57508 -113.44546,-48.2637 z"
       id="path2" /><path
       style="fill:#4feee0;fill-opacity:1;stroke-width:26.5711"
       d="m 255.88289,4.6085964 c -69.54114,0 -139.18607,24.8064286 -191.186344,74.6269496 L 51.514858,92.00206 c -10.586857,10.06789 -10.898217,26.88233 -0.830323,37.46916 10.17166,10.58689 26.986057,10.89825 37.572905,0.83035 l 13.28553,-12.6627 c 81.99638,-78.57111 226.68343,-78.57111 308.67971,0 l 13.28546,12.6627 c 10.58685,10.0679 27.40129,9.75654 37.57298,-0.83035 10.06788,-10.58683 9.75652,-27.40127 -0.83035,-37.46916 L 447.06907,79.131759 C 395.06894,29.415025 325.42404,4.6085964 255.88289,4.6085964 Z"
       id="path1-9" /><circle
       id="path5"
       style="fill:#53eee1;stroke:#000000;stroke-width:0.264583"
       cx="-181.82195"
       cy="27.526829"
       r="0" /><circle
       id="path6"
       style="fill:#53eee1;stroke:#000000;stroke-width:0.264583"
       cx="189.06584"
       cy="37.668293"
       r="0" /></g></svg>
